# xmcd
# 
# Track frame offsets:
#     150
#     18294
#     29937
#     43443
#     57232
#     70847
#     78828
#     92689
#     109580
#     119475
#     134634
#     146471
#     165449
#     171376
#     175573
# 
# Disc length: 2477
# 
# Revision: 0
# Processed by: cddbd v1.5.2PL0 Copyright (c) Steve Scherf et al.
# Submitted via: fre:ac v1.0.31
# 
DISCID=d009ab0f
DTITLE=Gilles Vigneault - Vivre debout
DYEAR=2014
DGENRE=Folk
TTITLE0=L'inventaire
TTITLE1=Pour le voyage
TTITLE2=Tu chantais
TTITLE3=Coyot' Bill
TTITLE4=Les Silences
TTITLE5=Berceuses pour une poupée
TTITLE6=L'isoloir
TTITLE7=Uranium
TTITLE8=Le Mot
TTITLE9=La Page
TTITLE10=Partir
TTITLE11=Vivre debout
TTITLE12=La Leçon d'humilité
TTITLE13=Dans la dune
TTITLE14=Petit bilan provisoire
EXTD=
EXTT0=
EXTT1=
EXTT2=
EXTT3=
EXTT4=
EXTT5=
EXTT6=
EXTT7=
EXTT8=
EXTT9=
EXTT10=
EXTT11=
EXTT12=Poème boni tirée de l'édition deluxe
EXTT13=Poème boni tirée de l'édition deluxe
EXTT14=Poème boni tirée de l'édition deluxe
PLAYORDER=
